<svg id="Layer_1" data-name="Layer 1" xmlns="http://www.w3.org/2000/svg" viewBox="0 0 140 65"><defs><style>.cls-1{fill:#f2c836;}.cls-2{fill:#0058b3;}.cls-3{fill:#333;}</style></defs><title>brand-logo4</title><path class="cls-1" d="M32.56,20.17c0,4.38,4.93,6.59,4.93,11.92h0a8.23,8.23,0,1,1-16.44,0h0c0-5.33,4.93-7.54,4.93-11.92,0-3.39-2.94-5.48-4.28-8.71,0,0,0,0,0,0q-.13-.33-.24-.66l-.05-.15c-.06-.22-.12-.44-.17-.67a.5.5,0,0,1,0-.12,5.42,5.42,0,0,1-.11-.72.31.31,0,0,1,0-.1,6.57,6.57,0,0,1,0-.78,8.24,8.24,0,0,1,16.48,0,6.57,6.57,0,0,1,0,.78.31.31,0,0,1,0,.1,5.42,5.42,0,0,1-.11.72.5.5,0,0,1,0,.12c-.05.23-.11.45-.17.67,0,0,0,.1,0,.15-.07.22-.15.45-.24.66,0,0,0,0,0,0C35.5,14.69,32.56,16.78,32.56,20.17Z"/><circle class="cls-1" cx="50.26" cy="20.57" r="8.24" transform="translate(0.17 41.56) rotate(-45)"/><circle class="cls-2" cx="50.26" cy="44.62" r="8.24" transform="translate(-8.87 12.67) rotate(-13.22)"/><path class="cls-2" d="M33.19,49.52h0c-4.61-2.67-9,.5-12.79-1.69-2.7-1.56-3.2-4.72-4.92-7.38-1.44-2.82-3.93-4.83-3.93-8,0-3.39,2.94-5.48,4.28-8.71v0a6.42,6.42,0,0,0,.24-.66.88.88,0,0,0,.05-.15c.07-.22.12-.44.17-.66l0-.13c0-.23.08-.47.11-.72v-.09a6.85,6.85,0,0,0,0-.79A8.24,8.24,0,0,0,0,20.57c0,.27,0,.53,0,.79a.28.28,0,0,0,0,.09,5.42,5.42,0,0,0,.11.72s0,.08,0,.13c.05.22.11.44.17.66l.05.15c.07.23.16.45.24.66v0C2,27,4.93,29.11,4.93,32.5,4.93,36.89,0,39.09,0,44.43H0c0,.06,0,.12,0,.19a8.25,8.25,0,0,0,4.3,7.24h0c4.61,2.66,9-.5,12.79,1.69S20.34,61.13,25,63.79h0a8.23,8.23,0,1,0,8.23-14.26Z"/><path class="cls-3" d="M72.22,25.45v14H69.46v-14Zm-.92,0h7.06v2.42H71.3Zm0,5.38H78v2.38H71.3Zm0,6.2h7.06v2.42H71.3Z"/><path class="cls-3" d="M84,25.45V37h5.58v2.5H81.18v-14Z"/><path class="cls-3" d="M94,25.45v14H91.26v-14Zm-.92,0h7.06v2.42H93.1Zm0,5.38h6.66v2.38H93.1Zm0,6.2h7.06v2.42H93.1Z"/><path class="cls-3" d="M101.58,25.45H112V28H108.2V39.45h-2.86V28h-3.76Z"/><path class="cls-3" d="M116.46,25.45v14H113.6v-14Zm-1.12,0h3a6.47,6.47,0,0,1,2.82.56,4.12,4.12,0,0,1,1.78,1.56,4.71,4.71,0,0,1,0,4.67,4.14,4.14,0,0,1-1.78,1.57,6.47,6.47,0,0,1-2.82.56h-3V32.09h2.78a3.09,3.09,0,0,0,1.31-.25,2,2,0,0,0,.85-.72,2.28,2.28,0,0,0,0-2.26,2,2,0,0,0-.85-.72,3.09,3.09,0,0,0-1.31-.25h-2.78Zm4.46,7.48,4.56,6.52H121l-4.2-6.52Z"/><path class="cls-3" d="M125.76,29.52a6.83,6.83,0,0,1,1.56-2.31,7,7,0,0,1,2.35-1.51,8.39,8.39,0,0,1,5.87,0,7.07,7.07,0,0,1,2.35,1.51,6.83,6.83,0,0,1,1.56,2.31,7.53,7.53,0,0,1,.55,2.93,7.64,7.64,0,0,1-.55,2.93,7.21,7.21,0,0,1-1.54,2.35,6.93,6.93,0,0,1-2.34,1.55,8.29,8.29,0,0,1-5.94,0,7.08,7.08,0,0,1-2.35-1.55,6.9,6.9,0,0,1-1.54-2.35,7.83,7.83,0,0,1-.54-2.93A7.54,7.54,0,0,1,125.76,29.52Zm3,5.31a4.32,4.32,0,0,0,7.63,0,5,5,0,0,0,.55-2.38,5.09,5.09,0,0,0-.54-2.38,4.14,4.14,0,0,0-1.52-1.64,4.31,4.31,0,0,0-2.3-.6,4.17,4.17,0,0,0-3.82,2.24,5.34,5.34,0,0,0,0,4.76Z"/></svg>