<svg id="Layer_1" data-name="Layer 1" xmlns="http://www.w3.org/2000/svg" viewBox="0 0 140 65"><defs><style>.cls-1{fill:#f2c836;}.cls-2{fill:#0058b3;}.cls-3{fill:#333;}</style></defs><title>brand-logo6</title><path class="cls-1" d="M.24,41.36a18.08,18.08,0,0,1,3.41-8.74,18,18,0,0,0-1.92,3.31c-.77,1.89.94,2.74,3,3.21l3.8.61,8.87,1.42L6.88,58.11A18.47,18.47,0,0,1,.24,41.36Z"/><path class="cls-1" d="M41.58,50.27c2.82-5,1.21-8.71-4.95-10.43L25.73,37,40.17,14.18A28.76,28.76,0,0,0,42,10.81a21.58,21.58,0,0,0,1.13-3c.14-.46.25-.9.34-1.33a14.29,14.29,0,0,0,.33-4.28c0-.29-.05-.56-.09-.8A4.43,4.43,0,0,0,43.6.8a5.59,5.59,0,0,0-.2-.72C44.23,1.61,56.5,25.06,41.58,50.27Z"/><path class="cls-2" d="M41.58,50.27c-.17.29-.34.56-.52.84l-.42.6-.34.48-.7.92-.4.5c-.27.32-.54.62-.83.92a2.09,2.09,0,0,1-.2.22c-.31.32-.62.62-1,.93l0,0c-.35.32-.71.64-1.08.94s-.73.58-1.12.86-.76.53-1.16.78-.77.48-1.17.71a25.21,25.21,0,0,1-5.24,2.2l-1.08.3-.15,0c-.4.1-.8.19-1.2.26s-.88.17-1.31.23-.88.12-1.32.16-.86.08-1.29.1a25.27,25.27,0,0,1-10.29-1.58L0,65,36.63,39.84C42.79,41.56,44.4,45.32,41.58,50.27Z"/><path class="cls-2" d="M40.17,14.18,8.55,39.75l-3.8-.61c-2.08-.47-3.79-1.32-3-3.21a18,18,0,0,1,1.92-3.31l.46-.6.48-.58a31.21,31.21,0,0,1,8-6.24c1.42-.83,2.91-1.63,4.44-2.42l1.17-.6.86-.44,1.73-.88c2.32-1.18,4.68-2.42,7-3.81l.85-.51.94-.61c.51-.33,1-.67,1.52-1l.08-.06c.27-.2.55-.39.82-.6.44-.32.88-.66,1.31-1l.49-.4c.46-.37.9-.76,1.34-1.15a34.26,34.26,0,0,0,3.8-4.07q.27-.33.51-.66c.24-.31.47-.63.69-1s.37-.53.54-.81a.47.47,0,0,0,.06-.09c.17-.26.33-.52.49-.78l.45-.76L42,2.92c.5-.93,1-1.9,1.39-2.92l0,0C43.55.47,45.46,5.81,40.17,14.18Z"/><path class="cls-3" d="M67.09,28.69a7.8,7.8,0,0,1-4.15-1.08,7.3,7.3,0,0,1-2.76-3,9.75,9.75,0,0,1-1-4.5,9.87,9.87,0,0,1,1-4.58,7.48,7.48,0,0,1,2.91-3.09,8.53,8.53,0,0,1,4.47-1.12,8.08,8.08,0,0,1,4.9,1.42A6.5,6.5,0,0,1,75,16.64H71.58a3.4,3.4,0,0,0-1.4-1.84,4.63,4.63,0,0,0-2.59-.66,4.87,4.87,0,0,0-3.89,1.6,6.51,6.51,0,0,0-1.36,4.38,6.29,6.29,0,0,0,1.35,4.31A4.71,4.71,0,0,0,67.38,26a4.52,4.52,0,0,0,3.44-1.23,5.55,5.55,0,0,0,1.4-3.26H68v-2.3h7.34V28.4H72.49l-.24-2.21a5.72,5.72,0,0,1-2,1.85A6.68,6.68,0,0,1,67.09,28.69Z"/><path class="cls-3" d="M78.3,28.4V11.6h6.16a7.22,7.22,0,0,1,3.33.68,4.66,4.66,0,0,1,1.95,1.85,5.39,5.39,0,0,1-.15,5.39,4.59,4.59,0,0,1-2.51,1.85l3.48,7H87l-3.12-6.62H81.37V28.4Zm3.07-8.88h2.9a3,3,0,0,0,2.26-.74,2.73,2.73,0,0,0,.72-2,2.63,2.63,0,0,0-.71-1.92,3.11,3.11,0,0,0-2.29-.72H81.37Z"/><path class="cls-3" d="M93.25,28.4V11.6h11v2.47h-7.9v4.61h7.18v2.4H96.32v4.85h7.9V28.4Z"/><path class="cls-3" d="M107.12,28.4V11.6h11v2.47h-7.9v4.61h7.18v2.4h-7.18v4.85h7.9V28.4Z"/><path class="cls-3" d="M121,28.4V11.6h3.07L132,23.43V11.6H135V28.4H132l-7.9-11.81V28.4Z"/><path class="cls-3" d="M59.89,53.4V36.6h5.52a7.16,7.16,0,0,1,3.24.65A4.27,4.27,0,0,1,70.53,39a5.41,5.41,0,0,1,0,5,4.32,4.32,0,0,1-1.87,1.76,7.05,7.05,0,0,1-3.26.66H61.9v7Zm2-8.71h3.46a4,4,0,0,0,2.87-.85,3.16,3.16,0,0,0,.85-2.34,3.2,3.2,0,0,0-.85-2.37,4,4,0,0,0-2.87-.85H61.9Z"/><path class="cls-3" d="M81.42,53.69a8.5,8.5,0,0,1-4.34-1.09,7.64,7.64,0,0,1-2.9-3.06,9.53,9.53,0,0,1-1-4.54,9.39,9.39,0,0,1,1-4.52,7.64,7.64,0,0,1,2.9-3.06,9.06,9.06,0,0,1,8.69,0,7.48,7.48,0,0,1,2.89,3.06,9.51,9.51,0,0,1,1,4.52,9.65,9.65,0,0,1-1,4.54,7.48,7.48,0,0,1-2.89,3.06A8.51,8.51,0,0,1,81.42,53.69Zm0-1.78a6.21,6.21,0,0,0,3.25-.83,5.63,5.63,0,0,0,2.18-2.37,9.19,9.19,0,0,0,0-7.41,5.66,5.66,0,0,0-2.18-2.36,6.8,6.8,0,0,0-6.51,0A5.66,5.66,0,0,0,76,41.3a9.19,9.19,0,0,0,0,7.41,5.63,5.63,0,0,0,2.18,2.37A6.23,6.23,0,0,0,81.42,51.91Z"/><path class="cls-3" d="M95.46,53.42,90.85,36.6H93L96.63,51l4.13-14.42H103L107,51l3.67-14.42h2.16l-4.7,16.8h-2.31l-4-13.87L97.71,53.4Z"/><path class="cls-3" d="M115.21,53.4V36.6H125.6v1.66h-8.38v5.85h7.66v1.63h-7.66v6h8.38V53.4Z"/><path class="cls-3" d="M128.74,53.4V36.6h5.43a7,7,0,0,1,3.21.65A4.18,4.18,0,0,1,139.23,39a5.28,5.28,0,0,1,.6,2.5,5,5,0,0,1-.85,2.86,4.68,4.68,0,0,1-2.65,1.8L140,53.4h-2.38l-3.4-6.94h-3.46V53.4Zm2-8.52H134a3.75,3.75,0,0,0,2.84-.94,3.34,3.34,0,0,0,.88-2.4,3.19,3.19,0,0,0-.87-2.36A4,4,0,0,0,134,38.3h-3.24Z"/></svg>