<svg id="Layer_1" data-name="Layer 1" xmlns="http://www.w3.org/2000/svg" viewBox="0 0 139.99 65"><defs><style>.cls-1{fill:#0058b3;}.cls-2{fill:#f2c836;}.cls-3{fill:#333;}</style></defs><title>Untitled-2</title><path class="cls-1" d="M57.73,18.92V46.08a5.33,5.33,0,0,1-2.67,4.62L31.54,64.29a5.39,5.39,0,0,1-2.67.71s-3.51-1.2-3.51-6.27l19-30.42h-12v-22c1.61-2.5,3.75-2.9,6.34-1.41L55.06,14.3A5.33,5.33,0,0,1,57.73,18.92Z" transform="translate(-0.01 0)"/><path class="cls-2" d="M38.72,4.86C36.13,3.37,34,3.77,32.38,6.27l-.25.39-.32.51-.44.69c-.16.26-.33.54-.53.85-.49.77-1.07,1.7-1.73,2.76l-.89,1.42-.53.85-1.13,1.8-1.2,1.92c-.42.66-.84,1.34-1.27,2l-2,3.19c-.81,1.28-1.63,2.6-2.45,3.92-.36.56-.71,1.13-1.07,1.7-.19.32-.39.63-.59.95s-.53.84-.79,1.26L15.63,33l-1.22,2-1.08,1.71h12v22c0,5.07,3.51,6.27,3.51,6.27a5.42,5.42,0,0,1-2.67-.71L2.68,50.7A5.33,5.33,0,0,1,0,46.08V18.92A5.33,5.33,0,0,1,2.68,14.3L26.2.71a5.36,5.36,0,0,1,5.34,0Z" transform="translate(-0.01 0)"/><path class="cls-3" d="M78.5,23.82v2.82H71.23v4.47H76.8v2.78H71.23v7.37h-3.5V23.82Z" transform="translate(-0.01 0)"/><path class="cls-3" d="M84.47,38.48h5.74v2.78H81V23.82h3.5Z" transform="translate(-0.01 0)"/><path class="cls-3" d="M103.13,37.93H96.18L95,41.26H91.36l6.27-17.47h4.07L108,41.26h-3.7Zm-.95-2.79-2.52-7.3-2.53,7.3Z" transform="translate(-0.01 0)"/><path class="cls-3" d="M113.06,40.81a5.37,5.37,0,0,1-2.31-1.8,4.77,4.77,0,0,1-.88-2.78h3.75a2.4,2.4,0,0,0,.76,1.7,2.7,2.7,0,0,0,1.89.63,2.9,2.9,0,0,0,1.92-.59,1.89,1.89,0,0,0,.7-1.54,1.8,1.8,0,0,0-.47-1.27,3.49,3.49,0,0,0-1.19-.79,19.29,19.29,0,0,0-2-.63,23.08,23.08,0,0,1-2.76-1,4.77,4.77,0,0,1-1.82-1.47,4.21,4.21,0,0,1-.77-2.64,4.71,4.71,0,0,1,.78-2.7,5,5,0,0,1,2.17-1.76,7.87,7.87,0,0,1,3.2-.61,6.94,6.94,0,0,1,4.38,1.31,4.84,4.84,0,0,1,1.86,3.66h-3.84a2.06,2.06,0,0,0-.76-1.49,2.9,2.9,0,0,0-1.89-.58,2.44,2.44,0,0,0-1.64.52,1.9,1.9,0,0,0-.61,1.53,1.58,1.58,0,0,0,.46,1.16,3.47,3.47,0,0,0,1.15.75c.46.19,1.11.41,1.94.66a18.86,18.86,0,0,1,2.77,1,4.92,4.92,0,0,1,1.85,1.5,4.12,4.12,0,0,1,.77,2.62,5,5,0,0,1-.72,2.6,5.13,5.13,0,0,1-2.12,1.91,7.33,7.33,0,0,1-3.33.71A8.37,8.37,0,0,1,113.06,40.81Z" transform="translate(-0.01 0)"/><path class="cls-3" d="M140,23.82V41.26h-3.5V33.84H129v7.42h-3.49V23.82H129V31h7.47V23.82Z" transform="translate(-0.01 0)"/></svg>