<svg id="Layer_1" data-name="Layer 1" xmlns="http://www.w3.org/2000/svg" viewBox="0 0 140 65"><defs><style>.cls-1{fill:#0058b3;}.cls-2{fill:#f2c836;}.cls-3{fill:#333;}</style></defs><title>brand-logo-1</title><path class="cls-1" d="M41.88,22a1.67,1.67,0,1,0,1.66,1.66A1.66,1.66,0,0,0,41.88,22Z" transform="translate(0)"/><circle class="cls-1" cx="54.25" cy="39.65" r="2.5"/><path class="cls-1" d="M54.26,34.16A2.23,2.23,0,1,0,52,31.93,2.23,2.23,0,0,0,54.26,34.16Z" transform="translate(0)"/><path class="cls-1" d="M33.82,19.8a1.38,1.38,0,1,0,1.38-1.39A1.38,1.38,0,0,0,33.82,19.8Z" transform="translate(0)"/><path class="cls-1" d="M48.56,25.57a1.94,1.94,0,1,0,1.94,1.94A1.94,1.94,0,0,0,48.56,25.57Z" transform="translate(0)"/><path class="cls-1" d="M54.26,44.57A2.79,2.79,0,1,0,57,47.36,2.79,2.79,0,0,0,54.26,44.57Z" transform="translate(0)"/><path class="cls-2" d="M42.17,30.73a1.4,1.4,0,1,0,.69-.18A1.39,1.39,0,0,0,42.17,30.73Z" transform="translate(0)"/><path class="cls-2" d="M43.41,39.82a1.12,1.12,0,0,0-.55-.14,1.09,1.09,0,0,0-1,.55,1.07,1.07,0,0,0-.11.84,1.11,1.11,0,0,0,.51.67,1.18,1.18,0,0,0,.55.14,1.1,1.1,0,0,0,.55-2.06Z" transform="translate(0)"/><path class="cls-2" d="M41.88,52.28a2.18,2.18,0,0,0-1.11.3,2.22,2.22,0,0,0,1.11,4.15h0a2.28,2.28,0,0,0,1.11-.3,2.22,2.22,0,0,0-1.11-4.15Z" transform="translate(0)"/><path class="cls-2" d="M35.2,55.86a2.49,2.49,0,0,0-1.25.33,2.55,2.55,0,0,0-1.17,1.52,2.5,2.5,0,0,0,2.42,3.15A2.49,2.49,0,0,0,37.62,59a2.5,2.5,0,0,0-2.42-3.15Z" transform="translate(0)"/><path class="cls-2" d="M28.52,59.43a2.71,2.71,0,0,0-1.39.38A2.78,2.78,0,0,0,28.52,65h0a2.81,2.81,0,0,0,1.39-.37,2.76,2.76,0,0,0,1.3-1.69,2.79,2.79,0,0,0-2.69-3.51Z" transform="translate(0)"/><path class="cls-2" d="M42.86,45.41a1.87,1.87,0,0,0-1,.27,1.94,1.94,0,1,0,2.66.71A2,2,0,0,0,42.86,45.41Z" transform="translate(0)"/><path class="cls-1" d="M28.67,49.93a1.66,1.66,0,0,0,1.67-2.88,1.75,1.75,0,0,0-.84-.22,1.66,1.66,0,0,0-.83,3.1Z" transform="translate(0)"/><path class="cls-1" d="M4.18,45a2.74,2.74,0,0,0-1.39-.38A2.79,2.79,0,0,0,.38,46a2.78,2.78,0,0,0,1,3.8,2.8,2.8,0,0,0,1.38.37h0A2.78,2.78,0,0,0,4.18,45Z" transform="translate(0)"/><path class="cls-1" d="M35,43.94a1.38,1.38,0,0,0,.5,1.89,1.31,1.31,0,0,0,.69.19,1.4,1.4,0,0,0,1.2-.69A1.38,1.38,0,1,0,35,43.94Z" transform="translate(0)"/><path class="cls-1" d="M10.72,49.05a2.5,2.5,0,0,0-2.51,4.33,2.52,2.52,0,0,0,1.25.34h0a2.5,2.5,0,0,0,2.17-1.25,2.51,2.51,0,0,0-.91-3.42Z" transform="translate(0)"/><path class="cls-1" d="M17.26,53.14a2.27,2.27,0,0,0-1.11-.29A2.22,2.22,0,0,0,15,57a2.3,2.3,0,0,0,1.11.29,2.22,2.22,0,0,0,1.12-4.15Z" transform="translate(0)"/><path class="cls-1" d="M23.8,50.67a2,2,0,0,0-2.66.71A2,2,0,0,0,21.85,54a1.94,1.94,0,1,0,1.95-3.36Z" transform="translate(0)"/><path class="cls-2" d="M2.79,30.84A2.23,2.23,0,1,0,5,33.07,2.23,2.23,0,0,0,2.79,30.84Z" transform="translate(0)"/><path class="cls-2" d="M8.48,39.43a1.94,1.94,0,1,0-1.94-1.94A1.94,1.94,0,0,0,8.48,39.43Z" transform="translate(0)"/><path class="cls-2" d="M2.79,22.85a2.51,2.51,0,1,0,2.5,2.5A2.51,2.51,0,0,0,2.79,22.85Z" transform="translate(0)"/><path class="cls-2" d="M2.79,14.86a2.79,2.79,0,1,0,2.78,2.78A2.79,2.79,0,0,0,2.79,14.86Z" transform="translate(0)"/><path class="cls-2" d="M14.18,41.88a1.18,1.18,0,0,0,.55-.14,1.12,1.12,0,0,0,.52-.67,1.16,1.16,0,0,0-.11-.84,1.12,1.12,0,0,0-1-.55,1.18,1.18,0,0,0-.55.14,1.11,1.11,0,0,0-.4,1.51,1.09,1.09,0,0,0,.95.55Z" transform="translate(0)"/><path class="cls-2" d="M23.23,45.2a1.39,1.39,0,1,0-1.39,1.39A1.38,1.38,0,0,0,23.23,45.2Z" transform="translate(0)"/><path class="cls-1" d="M13.24,11.61a2.22,2.22,0,0,1,.81-3,2.28,2.28,0,0,1,1.11-.3,2.25,2.25,0,0,1,1.93,1.11,2.22,2.22,0,0,1-.82,3,2.14,2.14,0,0,1-1.1.3h0A2.23,2.23,0,0,1,13.24,11.61Z" transform="translate(0)"/><path class="cls-1" d="M28.52,5.57a2.71,2.71,0,0,0,1.39-.38A2.78,2.78,0,0,0,27.13.37a2.83,2.83,0,0,0-1.3,1.69,2.79,2.79,0,0,0,2.69,3.51Z" transform="translate(0)"/><path class="cls-1" d="M14.18,34.45a1.31,1.31,0,0,0,.69-.19,1.38,1.38,0,0,0,.65-.83,1.42,1.42,0,0,0-.14-1,1.37,1.37,0,0,0-1.89-.51,1.38,1.38,0,0,0-.65.84,1.42,1.42,0,0,0,.14,1A1.39,1.39,0,0,0,14.18,34.45Z" transform="translate(0)"/><path class="cls-1" d="M14.18,19.59a1.84,1.84,0,0,0,1-.27A1.94,1.94,0,1,0,13.21,16a2,2,0,0,0-.91,1.18,2,2,0,0,0,1.88,2.45Z" transform="translate(0)"/><path class="cls-1" d="M14.18,27A1.72,1.72,0,0,0,15,26.8a1.67,1.67,0,0,0-.83-3.11,1.72,1.72,0,0,0-.83.22A1.67,1.67,0,0,0,14.18,27Z" transform="translate(0)"/><path class="cls-1" d="M21.84,9.14h0A2.5,2.5,0,0,0,24,5.39a2.52,2.52,0,0,0-2.17-1.25,2.49,2.49,0,0,0-1.25.33,2.5,2.5,0,0,0,1.25,4.67Z" transform="translate(0)"/><path class="cls-2" d="M29.62,15.94a1.1,1.1,0,1,0-1.1,1.1A1.1,1.1,0,0,0,29.62,15.94Z" transform="translate(0)"/><path class="cls-2" d="M52.86,20.05a2.77,2.77,0,0,0,1.39.38h0A2.81,2.81,0,0,0,56.67,19a2.8,2.8,0,0,0-1-3.8,2.83,2.83,0,0,0-1.39-.37,2.78,2.78,0,0,0-1.4,5.19Z" transform="translate(0)"/><path class="cls-2" d="M40.9,12.15h0a2.23,2.23,0,0,0,2.15-2.8A2.21,2.21,0,0,0,40.9,7.71a2.22,2.22,0,0,0-1.11,4.14A2.15,2.15,0,0,0,40.9,12.15Z" transform="translate(0)"/><path class="cls-2" d="M33.25,14.33a1.93,1.93,0,1,0-.91-1.18A1.93,1.93,0,0,0,33.25,14.33Z" transform="translate(0)"/><path class="cls-2" d="M47.58,16.29A2.5,2.5,0,0,0,50,13.14a2.52,2.52,0,0,0-2.42-1.86,2.5,2.5,0,0,0-2.42,3.15A2.46,2.46,0,0,0,46.33,16a2.5,2.5,0,0,0,1.25.34Z" transform="translate(0)"/><path class="cls-2" d="M22.06,21.06a1.43,1.43,0,0,0,.14-1,1.38,1.38,0,0,0-.65-.84,1.31,1.31,0,0,0-.69-.19,1.38,1.38,0,0,0-1.34,1.74,1.38,1.38,0,0,0,.65.84,1.38,1.38,0,0,0,1.89-.5Z" transform="translate(0)"/><path class="cls-3" d="M77.94,14.21a6,6,0,0,1,2.45,2.33,7,7,0,0,1,.86,3.51,6.85,6.85,0,0,1-.86,3.48,5.87,5.87,0,0,1-2.45,2.31,7.89,7.89,0,0,1-3.68.82H69.62V13.4h4.64A8,8,0,0,1,77.94,14.21Zm-.55,9.05a4.34,4.34,0,0,0,1.14-3.21,4.45,4.45,0,0,0-1.14-3.24,4.29,4.29,0,0,0-3.23-1.17H72.28V24.4h1.88A4.36,4.36,0,0,0,77.39,23.26Z" transform="translate(0)"/><path class="cls-3" d="M85.91,13.4V26.66H83.25V13.4Z" transform="translate(0)"/><path class="cls-3" d="M97.76,17.39a3.15,3.15,0,0,0-1.25-1.28,3.81,3.81,0,0,0-1.86-.43,4,4,0,0,0-2.09.53,3.62,3.62,0,0,0-1.43,1.52A4.91,4.91,0,0,0,90.62,20a4.87,4.87,0,0,0,.52,2.32,3.73,3.73,0,0,0,1.45,1.52,4.36,4.36,0,0,0,2.17.53,3.77,3.77,0,0,0,2.49-.81,3.82,3.82,0,0,0,1.27-2.25H94v-2h7.18v2.32A6,6,0,0,1,100,24.17a6.29,6.29,0,0,1-2.25,1.89,6.53,6.53,0,0,1-3.08.71,7,7,0,0,1-3.47-.86,6.3,6.3,0,0,1-2.43-2.4,7.35,7.35,0,0,1,0-7,6.25,6.25,0,0,1,2.43-2.41,7,7,0,0,1,3.45-.86,6.88,6.88,0,0,1,3.89,1.09,5.6,5.6,0,0,1,2.28,3.07Z" transform="translate(0)"/><path class="cls-3" d="M105.78,13.4V26.66h-2.66V13.4Z" transform="translate(0)"/><path class="cls-3" d="M117.43,13.4v2.14h-3.54V26.66h-2.66V15.54H107.7V13.4Z" transform="translate(0)"/><path class="cls-3" d="M127.5,24.13h-5.29l-.87,2.53h-2.79l4.77-13.28h3.09l4.77,13.28h-2.81ZM126.77,22l-1.92-5.54L122.94,22Z" transform="translate(0)"/><path class="cls-3" d="M135.63,24.55H140v2.11h-7V13.4h2.66Z" transform="translate(0)"/><path class="cls-3" d="M77.93,38.42v1.4H74.32V51.66H72.59V39.82H69v-1.4Z" transform="translate(0)"/><path class="cls-3" d="M81.78,39.82v4.43h4.83v1.42H81.78v4.56h5.4v1.43H80.05V38.4h7.13v1.42Z" transform="translate(0)"/><path class="cls-3" d="M90,41.54a6.36,6.36,0,0,1,2.38-2.42,6.63,6.63,0,0,1,3.36-.87,6.79,6.79,0,0,1,3.78,1,6,6,0,0,1,2.35,3H99.83a4.13,4.13,0,0,0-1.58-1.84,4.6,4.6,0,0,0-2.48-.64,4.81,4.81,0,0,0-2.49.64,4.46,4.46,0,0,0-1.73,1.84,6.4,6.4,0,0,0,0,5.54,4.52,4.52,0,0,0,1.73,1.84,4.81,4.81,0,0,0,2.49.64,4.69,4.69,0,0,0,2.48-.63,4.08,4.08,0,0,0,1.58-1.84h2.07a5.94,5.94,0,0,1-2.35,2.94,6.86,6.86,0,0,1-3.78,1,6.62,6.62,0,0,1-3.36-.86A6.33,6.33,0,0,1,90,48.5,6.91,6.91,0,0,1,89.15,45,7,7,0,0,1,90,41.54Z" transform="translate(0)"/><path class="cls-3" d="M114.67,38.42V51.66h-1.73v-6H106.2v6h-1.73V38.42h1.73v5.81h6.74V38.42Z" transform="translate(0)"/></svg>