<svg id="Layer_1" data-name="Layer 1" xmlns="http://www.w3.org/2000/svg" viewBox="0 0 140 65"><defs><style>.cls-1{fill:#0058b3;}.cls-2{fill:#f2c836;}.cls-3{fill:#333;}</style></defs><title>brand-logo-2</title><path class="cls-1" d="M25.68,11.91,10.93,40.65H8.77C4,40.65,0,36.4,3.26,31.06L21.94,0l3.54,5.87A6.21,6.21,0,0,1,25.68,11.91Z" transform="translate(0)"/><path class="cls-1" d="M43.89,42.78a22.76,22.76,0,0,1-6.66,16.09,22.08,22.08,0,0,1-18.08,5.95,1.65,1.65,0,0,1-1.24-2.48L33,32.71c8.94,0,10.6,5.9,10.88,8.69C43.87,41.86,43.89,42.32,43.89,42.78Z" transform="translate(0)"/><path class="cls-2" d="M18.17,40.65l-1.56,23.7a22,22,0,0,1-9.95-5.48,22.74,22.74,0,0,1-3.4-27.81C0,36.4,4,40.65,8.77,40.65Z" transform="translate(0)"/><path class="cls-2" d="M43.84,41.41c-.28-2.79-1.93-8.7-10.88-8.7H25.71L27.29,8.88,40.63,31.06A22.44,22.44,0,0,1,42.2,34.2c.09.21.16.41.24.61s.16.43.23.65c.22.65.41,1.3.57,2,.11.43.2.88.28,1.32,0,.22.08.44.11.66Q43.78,40.41,43.84,41.41Z" transform="translate(0)"/><path class="cls-3" d="M68.74,23.83v4H67a7.51,7.51,0,0,0-.71-1.63,2.23,2.23,0,0,0-.7-.67,2.74,2.74,0,0,0-1.38-.25H61.44v6.09h1.68a1.9,1.9,0,0,0,.87-.16,1.26,1.26,0,0,0,.53-.52,4.93,4.93,0,0,0,.4-1.15h1.43v5.16H64.92a4.72,4.72,0,0,0-.39-1.12,1.42,1.42,0,0,0-.52-.56,1.88,1.88,0,0,0-.89-.16H61.44v6.78H64.2a4.06,4.06,0,0,0,.75-.06,1.59,1.59,0,0,0,.54-.2A1.79,1.79,0,0,0,66,39a3.42,3.42,0,0,0,.4-.52,6.22,6.22,0,0,0,.36-.73,11.46,11.46,0,0,0,.42-1.26h1.74l-.24,4.63H56.15v-.84a3.24,3.24,0,0,0,.74-.27,1,1,0,0,0,.41-.4,2,2,0,0,0,.17-.66c0-.27,0-.61,0-1V27a9.41,9.41,0,0,0,0-1,1.68,1.68,0,0,0-.16-.66A1,1,0,0,0,56.9,25a3.09,3.09,0,0,0-.75-.29v-.84Z" transform="translate(0)"/><path class="cls-3" d="M77.34,33.47h-6V30.8h6Z" transform="translate(0)"/><path class="cls-3" d="M79.54,23.83H93.28v4.42H92a11.21,11.21,0,0,0-.56-1.72,3.39,3.39,0,0,0-.57-1,1.79,1.79,0,0,0-.66-.47,3,3,0,0,0-1-.14H87.59V38a6.18,6.18,0,0,0,.09,1.19,1.89,1.89,0,0,0,.25.71,1.22,1.22,0,0,0,.46.41,4.7,4.7,0,0,0,.92.28v.62h-5.8v-.62a6.94,6.94,0,0,0,.67-.19,1.6,1.6,0,0,0,.47-.25,1,1,0,0,0,.31-.37,2.28,2.28,0,0,0,.19-.62A6.84,6.84,0,0,0,85.22,38V25h-1.6a3.31,3.31,0,0,0-1,.12,1.53,1.53,0,0,0-.72.47,3.5,3.5,0,0,0-.6,1,10.28,10.28,0,0,0-.52,1.68H79.54Z" transform="translate(0)"/><path class="cls-3" d="M107.53,23.83v3.84h-1.25c-.13-.42-.26-.78-.39-1.09a5.14,5.14,0,0,0-.42-.79,2,2,0,0,0-.48-.51,1.53,1.53,0,0,0-.61-.26,4.22,4.22,0,0,0-.85-.07h-4V31.6h2.72a2,2,0,0,0,.88-.16,1.19,1.19,0,0,0,.52-.54,4.62,4.62,0,0,0,.4-1.19h1.2v4.88H104a4.45,4.45,0,0,0-.39-1.15,1.31,1.31,0,0,0-.51-.55,1.91,1.91,0,0,0-.9-.17H99.51v7.33h3.95a3.93,3.93,0,0,0,1-.11,1.63,1.63,0,0,0,.67-.37,2.25,2.25,0,0,0,.49-.68A5.54,5.54,0,0,0,106,38c.09-.3.23-.74.4-1.31h1.25l-.24,4.45H95.66v-.62a2.49,2.49,0,0,0,1-.45,1.26,1.26,0,0,0,.35-.7,9.35,9.35,0,0,0,.08-1.4V27a9.63,9.63,0,0,0-.06-1.28,1.66,1.66,0,0,0-.21-.62,1.12,1.12,0,0,0-.39-.36,5.41,5.41,0,0,0-.82-.29v-.63Z" transform="translate(0)"/><path class="cls-3" d="M122.3,24.2v3.52h-1.25a5.79,5.79,0,0,0-.78-1.76,2.65,2.65,0,0,0-1.09-.93,3.59,3.59,0,0,0-1.5-.28,3.5,3.5,0,0,0-2.33.87,5.74,5.74,0,0,0-1.6,2.61,13.38,13.38,0,0,0-.59,4.22,16.32,16.32,0,0,0,.48,4.25,5.66,5.66,0,0,0,1.43,2.65,3.19,3.19,0,0,0,2.31.9,4.14,4.14,0,0,0,1.7-.3,2.65,2.65,0,0,0,1.11-1,7.3,7.3,0,0,0,.86-1.9h1.25v3.63a19.5,19.5,0,0,1-2.44.48,23,23,0,0,1-2.75.16,5.71,5.71,0,0,1-4.87-2.19q-1.67-2.18-1.66-6.51a12.26,12.26,0,0,1,.86-4.76,6.67,6.67,0,0,1,6.5-4.28,17.5,17.5,0,0,1,2.13.12A17.24,17.24,0,0,1,122.3,24.2Z" transform="translate(0)"/><path class="cls-3" d="M138.53,38a10,10,0,0,0,0,1.1,2,2,0,0,0,.12.59,1.21,1.21,0,0,0,.22.37,1.19,1.19,0,0,0,.36.25,3.63,3.63,0,0,0,.73.24v.62h-5.32v-.62a3,3,0,0,0,1-.39,1.2,1.2,0,0,0,.38-.66,6.67,6.67,0,0,0,.11-1.5V32.67h-7.06V38a9,9,0,0,0,.06,1.24,1.81,1.81,0,0,0,.19.63,1.13,1.13,0,0,0,.4.38,3.49,3.49,0,0,0,.84.3v.62h-5.34v-.62a2.49,2.49,0,0,0,1.05-.45,1.26,1.26,0,0,0,.35-.7,9.35,9.35,0,0,0,.08-1.4V27a9.63,9.63,0,0,0-.06-1.28,1.66,1.66,0,0,0-.21-.62,1.12,1.12,0,0,0-.39-.36,5,5,0,0,0-.82-.29v-.63h5.34v.63a3.75,3.75,0,0,0-.81.27,1.32,1.32,0,0,0-.39.35,1.58,1.58,0,0,0-.22.63,9.68,9.68,0,0,0-.07,1.3V31.5h7.06V27A6.38,6.38,0,0,0,136,25.5a1.22,1.22,0,0,0-.36-.63,2.8,2.8,0,0,0-1-.41v-.63H140v.63a2.63,2.63,0,0,0-1,.4,1.11,1.11,0,0,0-.38.66,7.41,7.41,0,0,0-.1,1.49Z" transform="translate(0)"/></svg>