<svg id="Layer_1" data-name="Layer 1" xmlns="http://www.w3.org/2000/svg" viewBox="0 0 140 64.99"><defs><style>.cls-1{fill:#0058b3;}.cls-2{fill:#f2c836;}.cls-3{fill:#333;}</style></defs><title>brand-logo-3</title><path class="cls-1" d="M24,50.08a6.38,6.38,0,0,1-9,0l0,0h0c-2.92-2.92-1.42-6.83-3.83-9.23C9.24,39,6.49,39.45,4,38.41H4c-.17-.07-.33-.15-.5-.24l-.1-.05a4.25,4.25,0,0,1-.46-.27l-.08-.06c-.15-.1-.31-.21-.46-.33l-.05-.05c-.15-.12-.3-.26-.45-.4a6.38,6.38,0,0,1,0-9c.15-.15.3-.28.45-.41s0,0,.05,0,.31-.23.46-.33l.08-.06.46-.27.1-.05c.17-.09.33-.16.5-.23H4c2.5-1,5.25-.57,7.1-2.42s1.39-4.61,2.43-7.11h0c.07-.17.15-.34.23-.5l.06-.11c.08-.15.17-.3.27-.46a.22.22,0,0,0,.05-.08l.34-.45,0-.06a5.13,5.13,0,0,1,.85-.85l.06,0,.45-.34.08-.05.46-.27.11-.06.5-.23h0c2.5-1,5.25-.57,7.11-2.43S25.54,6.5,26.57,4V4c.07-.17.14-.33.23-.5l.05-.1.27-.46.06-.08c.1-.15.21-.31.33-.46l.05,0c.13-.15.26-.3.41-.45a6.38,6.38,0,1,1,9,9c-.15.15-.3.28-.45.41l-.06,0c-.15.12-.3.24-.45.34l-.09.05L35.5,12l-.11.06-.5.23h0c-2.5,1-5.26.57-7.11,2.43s-1.39,4.6-2.42,7.11h0c-.07.17-.14.33-.23.5a.47.47,0,0,0-.05.1l-.27.46-.06.08a4.84,4.84,0,0,1-.33.46l0,.05a6.55,6.55,0,0,1-.86.86s0,0,0,.05a4.84,4.84,0,0,1-.46.33l-.08.06-.46.27-.1.05c-.17.09-.33.16-.5.23h0c-2.51,1-5.26.57-7.11,2.42-1.27,1.27-1.45,3-1.78,4.72.33,1.74.51,3.44,1.78,4.71,2.4,2.4,6.31.91,9.22,3.83h0l0,0A6.38,6.38,0,0,1,24,50.08Z" transform="translate(0 -0.01)"/><circle class="cls-1" cx="32.5" cy="58.62" r="6.38" transform="translate(-26.27 90.83) rotate(-89.72)"/><circle class="cls-2" cx="45.56" cy="19.46" r="6.38" transform="translate(-3.98 19.03) rotate(-22.64)"/><circle class="cls-2" cx="32.5" cy="32.51" r="6.38" transform="translate(-0.16 0.15) rotate(-0.28)"/><path class="cls-2" d="M50.52,49.57l.34-.45a.22.22,0,0,1,0-.08c.1-.15.19-.31.27-.46l.06-.11c.08-.16.16-.33.23-.49v0c1-2.5.57-5.25,2.43-7.11s4.6-1.39,7.1-2.42h0c.17-.07.33-.14.5-.23l.1,0,.46-.27.08-.06c.15-.1.31-.21.46-.33l.05,0a5.6,5.6,0,0,0,.45-.4,6.38,6.38,0,0,0-9-9c-.15.15-.28.3-.41.45l0,.06-.34.45-.05.09q-.15.22-.27.45l-.06.11c-.08.16-.16.33-.23.5h0c-1,2.5-.57,5.26-2.43,7.11s-4.6,1.39-7.1,2.42h0l-.5.23-.1.06c-.16.08-.31.17-.46.26l-.08.06a4.84,4.84,0,0,0-.46.33s0,0,0,0a4.38,4.38,0,0,0-.45.41,6.38,6.38,0,0,0,9,9,5.39,5.39,0,0,0,.4-.45Z" transform="translate(0 -0.01)"/><path class="cls-3" d="M87.29,25.88A9.52,9.52,0,0,1,82.45,27a7,7,0,0,1-5.06-1.78,6.46,6.46,0,0,1-1.85-4.89,6.82,6.82,0,0,1,2-5.11,7.36,7.36,0,0,1,5.38-2,10.9,10.9,0,0,1,3.73.59v2.81a7.32,7.32,0,0,0-3.76-.89,4,4,0,0,0-3,1.21,4.4,4.4,0,0,0-1.18,3.23,4.4,4.4,0,0,0,1.06,3.17,3.71,3.71,0,0,0,2.84,1.13,4,4,0,0,0,1.71-.31v-2.6H81.63V19.19h5.66Z" transform="translate(0 -0.01)"/><path class="cls-3" d="M101.58,26.77H98.32l-.95-3H92.64l-.94,3H88.45L93.3,13.46h3.55Zm-4.9-5.26L95.25,17a6.14,6.14,0,0,1-.22-1.2H95A5.18,5.18,0,0,1,94.73,17l-1.45,4.51Z" transform="translate(0 -0.01)"/><path class="cls-3" d="M118.4,26.77h-3v-8c0-.86,0-1.81.11-2.85h-.07a13.58,13.58,0,0,1-.42,1.76l-3.12,9.05h-2.45l-3.17-8.95c-.09-.25-.22-.86-.42-1.86h-.08q.12,2,.12,3.45v7.36h-2.7V13.46h4.39l2.72,7.89a11,11,0,0,1,.47,1.9h.06a17.16,17.16,0,0,1,.53-1.92l2.71-7.87h4.28Z" transform="translate(0 -0.01)"/><path class="cls-3" d="M129.4,26.77h-8V13.46h7.67V15.9h-4.68v3h4.35v2.43h-4.35v3.05h5Z" transform="translate(0 -0.01)"/><path class="cls-3" d="M130.93,26.26v-3a5.59,5.59,0,0,0,3.66,1.35,4.14,4.14,0,0,0,1-.1,2.38,2.38,0,0,0,.7-.28,1.26,1.26,0,0,0,.43-.43,1.07,1.07,0,0,0,.13-.53,1.16,1.16,0,0,0-.22-.7A2.38,2.38,0,0,0,136,22a5.47,5.47,0,0,0-.91-.5L134,21a5.81,5.81,0,0,1-2.32-1.58,3.43,3.43,0,0,1-.77-2.27,3.58,3.58,0,0,1,.42-1.78,3.51,3.51,0,0,1,1.13-1.23,5.14,5.14,0,0,1,1.67-.71,8.63,8.63,0,0,1,2-.23,11.12,11.12,0,0,1,1.84.13,7.12,7.12,0,0,1,1.48.38v2.78a4.2,4.2,0,0,0-.72-.41,5,5,0,0,0-.82-.29,5.84,5.84,0,0,0-.83-.18,7.11,7.11,0,0,0-.78-.05,3.84,3.84,0,0,0-.93.1,2.13,2.13,0,0,0-.7.27,1.52,1.52,0,0,0-.45.42,1.07,1.07,0,0,0-.16.55,1,1,0,0,0,.18.6,1.83,1.83,0,0,0,.5.5,5.15,5.15,0,0,0,.79.47c.31.15.66.3,1,.47a10,10,0,0,1,1.43.71,5,5,0,0,1,1.09.84,3.39,3.39,0,0,1,.7,1.09A3.78,3.78,0,0,1,140,23a3.83,3.83,0,0,1-.42,1.87,3.54,3.54,0,0,1-1.15,1.22,4.86,4.86,0,0,1-1.68.68,10.2,10.2,0,0,1-2,.2,10.73,10.73,0,0,1-2.08-.19A6,6,0,0,1,130.93,26.26Z" transform="translate(0 -0.01)"/><path class="cls-3" d="M78.16,46.74v5H76.6V38.46h3.65a4.83,4.83,0,0,1,3.31,1,3.73,3.73,0,0,1,1.17,2.94,4,4,0,0,1-1.3,3.09,5,5,0,0,1-3.52,1.21Zm0-6.87v5.46h1.63a3.65,3.65,0,0,0,2.46-.74,2.59,2.59,0,0,0,.85-2.08q0-2.64-3.12-2.64Z" transform="translate(0 -0.01)"/><path class="cls-3" d="M94.14,51.77h-6.9V38.46H88.8v11.9h5.34Z" transform="translate(0 -0.01)"/><path class="cls-3" d="M106.48,51.77h-1.73L103.34,48H97.7l-1.32,3.73H94.64l5.1-13.31h1.62Zm-3.65-5.13L100.75,41a5.36,5.36,0,0,1-.21-.89h0a4.89,4.89,0,0,1-.21.89l-2.07,5.67Z" transform="translate(0 -0.01)"/><path class="cls-3" d="M117.08,38.46l-4.39,8.39v4.92h-1.55V46.89l-4.28-8.43h1.77l3,6q.06.1.33.81h0a4.23,4.23,0,0,1,.36-.81l3.11-6Z" transform="translate(0 -0.01)"/></svg>